<svg width="40" height="39" viewBox="0 0 40 39" fill="none" xmlns="http://www.w3.org/2000/svg">
<g clip-path="url(#clip0)">
<path d="M18.2188 16.25C27.2715 16.25 36.4375 14.2965 36.4375 10.5624V4.875C36.4375 1.5258 26.9934 0 18.2188 0C9.4442 0 0 1.5258 0 4.875V10.5625C0 14.2965 9.16602 16.25 18.2188 16.25ZM18.2188 1.62497C27.8635 1.62497 33.125 3.77211 33.125 4.875C33.125 5.97789 27.8635 8.12503 18.2188 8.12503C8.57404 8.12503 3.31253 5.97789 3.31253 4.875C3.31253 3.77211 8.57404 1.62497 18.2188 1.62497Z" fill="white"/>
<path d="M25.1301 25.0661C25.9565 21.7891 28.9035 19.5 32.2969 19.5C33.2981 19.5 34.2993 19.715 35.2729 20.1395C35.5317 20.2514 35.8261 20.2276 36.0606 20.0784C36.2952 19.9285 36.4375 19.6722 36.4375 19.3969V15.4438C36.4375 15.151 36.2773 14.8813 36.0186 14.7369C35.7565 14.5917 35.4379 14.5957 35.1856 14.7464C30.1004 17.7243 20.1596 17.875 18.2187 17.875C16.2778 17.875 6.33702 17.7243 1.25181 14.7464C0.999495 14.5957 0.680874 14.5917 0.41885 14.7369C0.160165 14.8813 0 15.151 0 15.4438V20.3125C0 24.0465 9.16603 26 18.2188 26C20.3182 26 22.4031 25.8921 24.4152 25.6787C24.7613 25.6421 25.0459 25.397 25.1301 25.0661Z" fill="white"/>
<path d="M22.424 27.4743C20.4976 27.6052 18.9628 27.625 18.2187 27.625C16.2778 27.625 6.33702 27.4743 1.25181 24.4964C0.999495 24.3457 0.680874 24.3425 0.41885 24.4869C0.160165 24.6313 0 24.901 0 25.1939V30.0625C0 33.7966 9.16603 35.7501 18.2188 35.7501C19.5823 35.7501 20.9943 35.7008 22.4176 35.6024C22.8511 35.5731 23.1875 35.2192 23.1875 34.7923V29.25C23.1875 28.9961 23.2199 28.7366 23.2846 28.4795C23.3477 28.2272 23.2846 27.9606 23.1147 27.7622C22.9433 27.5631 22.6602 27.4632 22.424 27.4743Z" fill="white"/>
<path d="M38.0938 27.625V26.8125C38.0938 23.6768 35.4929 21.125 32.2969 21.125C29.1008 21.125 26.5 23.6768 26.5 26.8125V27.625C25.587 27.625 24.8438 28.3542 24.8438 29.25V37.375C24.8438 38.2708 25.587 39 26.5 39H38.0937C39.0067 39 39.7499 38.2708 39.7499 37.375V29.25C39.75 28.3542 39.0068 27.625 38.0938 27.625ZM33.125 33.8752V34.9375C33.125 35.3867 32.7546 35.7501 32.2969 35.7501C31.8391 35.7501 31.4687 35.3867 31.4687 34.9375V33.8752C30.9829 33.5915 30.6406 33.0935 30.6406 32.5C30.6406 31.6043 31.3838 30.8751 32.2968 30.8751C33.2098 30.8751 33.953 31.6043 33.953 32.5C33.9531 33.0935 33.6108 33.5915 33.125 33.8752ZM34.7813 27.625H29.8125V26.8125C29.8125 25.4684 30.9269 24.375 32.2969 24.375C33.6669 24.375 34.7813 25.4684 34.7813 26.8125V27.625Z" fill="white"/>
</g>
<defs>
<clipPath id="clip0">
<rect width="39.75" height="39" fill="white"/>
</clipPath>
</defs>
</svg>
