<svg width="44" height="43" viewBox="0 0 44 43" fill="none" xmlns="http://www.w3.org/2000/svg">
<g clip-path="url(#clip0)">
<path d="M21.841 43L25.5573 35.3436L18.2695 35.3542L21.841 43Z" fill="white"/>
<path d="M1.01247 0V33.5553H42.8144V0H1.01247ZM40.0998 30.8929H3.72706V2.66338H40.0998V30.8929Z" fill="white"/>
<path d="M12.8987 15.7625L8.01617 20.7473V29.1587C8.01617 29.3952 8.21194 29.5878 8.4535 29.5878H14.3817C14.6232 29.5878 14.819 29.3957 14.819 29.1587V16.2558L13.4519 15.7625H12.8987Z" fill="white"/>
<path d="M24.9733 19.6719H19.0456C18.8035 19.6719 18.6078 19.864 18.6078 20.1009V29.1583C18.6078 29.3953 18.8035 29.5878 19.0456 29.5878H24.9733C25.2148 29.5878 25.4106 29.3957 25.4106 29.1583V20.1005C25.4106 19.864 25.2148 19.6719 24.9733 19.6719Z" fill="white"/>
<path d="M33.5899 10.445L32.513 9.56207L28.6168 13.7322V29.1583C28.6168 29.3948 28.8125 29.5874 29.0546 29.5874H34.9827C35.2243 29.5874 35.4201 29.3953 35.4201 29.1583V10.5871C35.3958 10.6008 35.3738 10.6178 35.349 10.6302C35.1224 10.7466 34.8678 10.808 34.6118 10.808C34.2375 10.8085 33.8759 10.6797 33.5899 10.445Z" fill="white"/>
<path d="M6.56778 20.1046C6.79719 20.1046 7.0266 20.0161 7.19854 19.841L12.7786 14.1439L22.5423 17.6686C22.8759 17.7882 23.2488 17.6998 23.4894 17.4431L32.4803 7.82052L34.5837 9.54599C34.687 9.63033 34.8304 9.645 34.9491 9.58449C35.0673 9.52352 35.1374 9.39929 35.1252 9.26773L34.6692 4.26554C34.6533 4.08675 34.4921 3.95519 34.3104 3.97123L29.2115 4.41773C29.0784 4.42919 28.9653 4.51904 28.9251 4.64418C28.9125 4.68544 28.9083 4.72807 28.912 4.76979C28.92 4.85414 28.9606 4.9339 29.0293 4.98983L31.1374 6.7185L22.597 15.8592L12.8478 12.3396C12.5212 12.2227 12.1558 12.3052 11.9147 12.55L5.93749 18.6519C5.60296 18.9939 5.6137 19.5366 5.96225 19.8648C6.13139 20.0248 6.34959 20.1046 6.56778 20.1046Z" fill="white"/>
</g>
<defs>
<clipPath id="clip0">
<rect width="43.8269" height="43" fill="white"/>
</clipPath>
</defs>
</svg>
