<svg width="160" height="33" viewBox="0 0 160 33" fill="none" xmlns="http://www.w3.org/2000/svg">
<g clip-path="url(#clip0)">
<path d="M18.3797 20.8442C16.6511 20.8442 14.9577 20.8442 13.2644 20.8442C13.2644 13.884 13.2644 6.9602 13.2644 0C14.9577 0 16.6158 0 18.3444 0C18.3444 2.5873 18.3444 5.1746 18.3444 7.7619C18.4149 7.7619 18.4502 7.7619 18.4502 7.72546C19.7202 5.90342 21.4488 5.24748 23.5302 5.57545C25.6821 5.93986 26.8816 7.47037 27.4813 9.51106C27.693 10.2034 27.7988 10.9322 27.7988 11.6246C27.8341 14.6128 27.7988 17.5645 27.8341 20.5526C27.8341 20.6255 27.8341 20.6984 27.8341 20.7713C27.693 20.7713 27.5871 20.8077 27.4813 20.8077C26.0349 20.8077 24.5533 20.8077 23.1069 20.8077C22.7894 20.8077 22.7188 20.6984 22.7188 20.4069C22.7188 17.8196 22.7188 15.1958 22.7188 12.6085C22.7188 12.1348 22.6835 11.6611 22.5777 11.2238C22.3308 10.2399 21.6605 9.65682 20.7785 9.62038C19.9319 9.5475 19.0499 10.0577 18.7324 10.9687C18.5208 11.5153 18.4502 12.0984 18.4149 12.6814C18.3797 15.2323 18.4149 17.7467 18.4149 20.2975C18.3797 20.4797 18.3797 20.6255 18.3797 20.8442Z" fill="white"/>
<path d="M144.215 0C145.908 0 147.602 0 149.295 0C149.295 2.5873 149.295 5.1746 149.295 7.79834C149.401 7.72546 149.436 7.68902 149.471 7.61613C151.165 4.91951 156.139 4.26358 158.079 8.49071C158.503 9.43818 158.75 10.4585 158.75 11.5153C158.785 14.5763 158.75 17.6009 158.75 20.662C158.75 20.6984 158.75 20.7348 158.714 20.8077C158.608 20.8077 158.467 20.8442 158.361 20.8442C156.915 20.8442 155.469 20.8442 154.022 20.8442C153.705 20.8442 153.599 20.7348 153.599 20.4069C153.599 17.8196 153.599 15.2323 153.599 12.645C153.599 12.2077 153.564 11.7339 153.458 11.2967C153.246 10.3128 152.541 9.69326 151.659 9.62038C150.812 9.5475 149.93 10.0577 149.613 10.9687C149.401 11.5153 149.295 12.1348 149.295 12.7179C149.26 15.2687 149.295 17.7831 149.295 20.334C149.295 20.4797 149.295 20.662 149.295 20.8442C147.566 20.8442 145.908 20.8442 144.215 20.8442C144.215 13.884 144.215 6.9602 144.215 0Z" fill="white"/>
<path d="M80.8564 20.8806C80.1861 20.8806 79.657 20.8806 79.1278 20.8806C77.9989 20.8806 76.87 20.8806 75.7412 20.8806C75.4589 20.8806 75.2825 20.8077 75.1414 20.5526C73.9773 18.7306 72.7778 16.945 71.5784 15.0865C71.0845 15.6331 70.5906 16.1797 70.132 16.7263C70.0615 16.7992 70.0967 16.945 70.0967 17.0543C70.0967 18.1475 70.0967 19.2772 70.0967 20.3704C70.0967 20.5162 70.0967 20.6619 70.0967 20.8442C68.3681 20.8442 66.7101 20.8442 65.0168 20.8442C65.0168 13.884 65.0168 6.9602 65.0168 0.036438C66.7101 0.036438 68.3681 0.036438 70.0967 0.036438C70.0967 3.82628 70.0967 7.65257 70.0967 11.5517C70.2731 11.3331 70.379 11.2238 70.4495 11.1145C71.7901 9.43817 73.1306 7.79834 74.4359 6.08562C74.6123 5.86697 74.7887 5.79409 75.0709 5.79409C76.5878 5.79409 78.1048 5.79409 79.657 5.79409C79.7981 5.79409 79.9392 5.86697 80.0803 5.90341C80.0098 6.04918 80.0098 6.23138 79.9039 6.3407C78.387 8.08986 76.8348 9.83902 75.2825 11.5882C75.212 11.6611 75.1414 11.7339 75.0709 11.8433C76.0234 13.2645 76.9406 14.6492 77.8931 16.0704C78.8103 17.4187 79.7275 18.8035 80.6095 20.1518C80.68 20.3704 80.7506 20.5891 80.8564 20.8806Z" fill="white"/>
<path d="M39.7227 12.645C40.0049 10.6772 38.9113 9.43817 36.9358 9.40173C35.3483 9.36529 33.8666 9.7297 32.4555 10.5314C32.4202 10.5678 32.3497 10.5678 32.3144 10.6043C32.2438 10.495 32.2085 10.4221 32.138 10.3492C31.7147 9.51105 31.3266 8.67291 30.9033 7.87122C30.7269 7.54325 30.7974 7.39748 31.0797 7.25172C32.2085 6.55935 33.4433 6.1585 34.7133 5.86697C36.4419 5.50256 38.1352 5.39324 39.8638 5.83053C42.8624 6.55935 44.6968 8.81868 44.7674 11.989C44.838 14.8679 44.7674 17.7831 44.7674 20.6984C44.7674 20.7713 44.7674 20.8442 44.7321 20.917C44.591 20.917 44.4852 20.9535 44.3793 20.9535C42.933 20.9535 41.4866 20.9535 40.0402 20.9535C39.7227 20.9535 39.6169 20.8442 39.6521 20.5526C39.6874 20.0789 39.6521 19.6052 39.6521 19.095C39.4405 19.3136 39.2288 19.4958 39.0524 19.678C37.3238 21.3179 34.3605 21.7916 32.2438 20.7348C30.4799 19.8603 29.598 18.3662 29.6333 16.3255C29.6686 14.3212 30.6916 13.0458 32.3849 12.2806C34.678 11.2967 36.971 11.3331 39.1935 12.4992C39.4052 12.4628 39.5463 12.5356 39.7227 12.645ZM37.218 14.2484C36.7594 14.3577 36.2655 14.4306 35.8069 14.6492C35.1013 14.9772 34.7838 15.5238 34.8544 16.2526C34.8897 16.8721 35.313 17.3458 36.0538 17.5645C37.0063 17.8196 37.9235 17.6374 38.8055 17.2001C39.511 16.8357 40.0049 16.3255 39.7932 15.4145C39.758 15.2687 39.6521 15.0501 39.5463 14.9772C38.8407 14.5399 38.0646 14.3212 37.218 14.2484Z" fill="white"/>
<path d="M122.378 12.6449C122.59 10.6407 121.602 9.43815 119.627 9.40171C118.074 9.36527 116.593 9.72968 115.182 10.4949C115.111 10.5314 115.04 10.5678 114.935 10.6407C114.405 9.58392 113.912 8.56357 113.382 7.50679C113.559 7.39747 113.7 7.2517 113.876 7.17882C116.628 5.72119 119.485 5.13814 122.555 5.83051C125.589 6.52289 127.423 8.92798 127.458 12.1348C127.494 14.9407 127.458 17.7467 127.458 20.5526C127.458 20.6619 127.458 20.7713 127.458 20.917C125.765 20.917 124.107 20.917 122.378 20.917C122.378 20.334 122.378 19.7145 122.378 19.0221C122.237 19.1679 122.167 19.2043 122.096 19.2772C120.367 21.2814 116.91 21.8645 114.688 20.5526C112.959 19.5323 112.218 17.9289 112.359 15.9246C112.5 13.9568 113.7 12.7543 115.393 12.1348C117.616 11.2966 119.874 11.406 121.99 12.5356C122.096 12.4992 122.202 12.5721 122.378 12.6449ZM122.449 15.7424C122.625 15.1958 122.308 14.9407 121.849 14.7585C120.72 14.2848 119.591 14.1026 118.427 14.6492C117.722 14.9772 117.404 15.5602 117.475 16.2526C117.545 16.9085 117.969 17.3823 118.709 17.5645C119.874 17.856 120.967 17.6009 121.92 16.8356C122.308 16.5806 122.59 16.2526 122.449 15.7424Z" fill="white"/>
<path d="M47.5896 5.83052C49.2829 5.83052 50.9763 5.83052 52.7049 5.83052C52.7049 6.48645 52.7049 7.10595 52.7049 7.79832C52.8107 7.72544 52.846 7.689 52.8812 7.65256C54.0807 5.93984 55.7387 5.32035 57.7496 5.57543C59.6546 5.83052 60.854 7.03307 61.5948 8.78223C62.0182 9.76613 62.1593 10.7865 62.1593 11.8797C62.1593 14.795 62.1593 17.7102 62.1593 20.6619C62.1593 20.6984 62.1593 20.7713 62.124 20.8441C60.4307 20.8441 58.7373 20.8441 57.0087 20.8441C57.0087 20.6619 57.0087 20.5162 57.0087 20.334C57.0087 17.7467 57.044 15.1229 57.0087 12.5356C57.0087 11.9526 56.9029 11.3331 56.6912 10.8229C56.0915 9.43816 54.3276 9.21952 53.4104 10.3856C52.8812 11.0416 52.7401 11.7704 52.7401 12.6085C52.7401 15.1958 52.7401 17.7467 52.7401 20.334C52.7401 20.4797 52.7401 20.6619 52.7401 20.8441C51.0115 20.8441 49.3182 20.8441 47.6249 20.8441C47.5896 15.8153 47.5896 10.8594 47.5896 5.83052Z" fill="white"/>
<path d="M95.0733 12.0983C95.0028 14.4306 94.7558 16.5077 93.7328 18.4026C92.745 20.2611 91.2634 21.4636 89.2172 21.7552C86.642 22.156 84.2078 21.0992 82.7967 18.5119C82.0912 17.2729 81.6678 15.9246 81.562 14.467C81.4562 13.5195 81.3856 12.5356 81.3856 11.5517C81.4209 9.72969 81.562 7.90765 82.0206 6.15849C82.2323 5.32035 82.2323 5.32035 83.0437 5.50256C84.1726 5.79408 85.3014 6.04917 86.4303 6.3407C86.7478 6.41358 86.7831 6.5229 86.7478 6.85087C86.5362 8.49071 86.3598 10.1305 86.1834 11.7704C86.0423 13.0094 86.1481 14.2119 86.4303 15.4145C86.5362 15.8518 86.6773 16.289 86.8889 16.6535C87.5239 17.7831 88.935 17.8196 89.5347 16.6899C89.8522 16.1068 90.0639 15.378 90.1345 14.6856C90.2403 13.556 90.3109 12.3899 90.205 11.2602C90.0639 9.72969 89.7111 8.23562 89.3936 6.7051C89.3231 6.37714 89.3584 6.19493 89.7111 6.12205C90.9811 5.79408 92.2864 5.42968 93.5564 5.02883C93.8033 4.95594 93.8739 5.02883 93.9444 5.24747C94.4383 6.77799 94.7558 8.3085 94.8264 9.9119C94.9675 10.75 95.0381 11.5153 95.0733 12.0983Z" fill="white"/>
<path d="M141.675 6.85089C141.322 7.94411 140.97 9.07378 140.582 10.167C139.312 9.62039 138.077 9.21954 136.736 9.07378C136.242 9.03734 135.748 9.03734 135.29 9.11022C134.937 9.14666 134.655 9.36531 134.584 9.76615C134.514 10.167 134.725 10.4585 135.008 10.6407C135.29 10.8229 135.607 10.9323 135.925 11.078C137.018 11.5153 138.112 11.8797 139.17 12.3899C140.405 12.9729 141.358 13.884 141.746 15.3052C142.31 17.4916 141.287 19.5323 139.1 20.5162C138.112 20.9535 137.089 21.1357 136.031 21.1721C133.985 21.2086 132.009 20.9535 130.104 20.1882C129.822 20.0789 129.54 19.9331 129.257 19.7509C129.187 19.6781 129.116 19.4959 129.152 19.3865C129.575 18.3662 129.998 17.3458 130.457 16.2526C130.598 16.3255 130.704 16.3984 130.845 16.4348C132.468 17.2365 134.161 17.6374 135.96 17.4552C136.207 17.4187 136.454 17.3458 136.666 17.2365C137.23 16.945 137.301 16.3619 136.807 15.9611C136.525 15.7424 136.172 15.5602 135.819 15.4145C135.113 15.123 134.373 14.9043 133.667 14.6492C132.75 14.2848 131.868 13.8475 131.092 13.1916C129.328 11.6611 129.328 8.67293 131.021 7.10597C132.009 6.19495 133.208 5.72122 134.549 5.57546C136.877 5.35681 139.135 5.6119 141.287 6.66868C141.428 6.70512 141.534 6.77801 141.675 6.85089Z" fill="white"/>
<path d="M111.477 7.68903C110.631 8.78225 109.855 9.8026 109.043 10.8594C108.338 10.3128 107.632 9.87548 106.786 9.72971C106.256 9.65683 105.657 9.58395 105.127 9.62039C103.081 9.87548 101.847 11.5882 102.094 13.7382C102.376 16.2162 104.246 17.4916 106.715 16.9086C107.562 16.7264 108.302 16.3255 109.008 15.706C109.396 16.2162 109.819 16.7628 110.207 17.273C110.595 17.7831 111.019 18.3297 111.442 18.8764C111.089 19.1679 110.737 19.4594 110.349 19.6781C107.597 21.245 104.669 21.573 101.706 20.5526C98.8127 19.5687 97.0489 16.945 96.943 13.7382C96.8372 10.8229 97.7544 8.41784 100.153 6.74157C101.459 5.83055 102.94 5.46614 104.528 5.4297C106.503 5.35682 108.373 5.79411 110.102 6.70513C110.595 7.03309 111.019 7.3975 111.477 7.68903Z" fill="white"/>
<path d="M2.04611 9.65682C1.34055 9.65682 0.705553 9.65682 0 9.65682C0 8.34495 0 7.10596 0 5.79409C0.705553 5.79409 1.41111 5.79409 2.11666 5.79409C2.43416 5.79409 2.57527 5.72121 2.64583 5.3568C2.82221 4.3729 3.06916 3.35256 3.28082 2.33221C3.35138 2.04069 3.45721 1.9678 3.73943 1.9678C4.69193 1.9678 5.67971 1.9678 6.6322 1.9678C6.77331 1.9678 6.87915 1.9678 7.05553 2.00424C7.05553 3.27967 7.05553 4.51866 7.05553 5.83053C7.65526 5.83053 8.2197 5.83053 8.74886 5.83053C9.38386 5.83053 10.0189 5.83053 10.6539 5.83053C10.7597 5.83053 10.9361 5.9763 10.9361 6.04918C10.9714 7.25172 10.9361 8.45427 10.9361 9.69326C9.63081 9.69326 8.36081 9.69326 7.02026 9.69326C7.02026 9.87546 7.02026 10.0212 7.02026 10.167C7.02026 11.8797 7.02026 13.5924 7.02026 15.3416C7.02026 16.617 7.61998 17.2001 8.8547 17.0543C9.41914 16.9814 9.98358 16.7992 10.5833 16.617C10.6186 16.6899 10.6539 16.8357 10.7244 16.9814C11.0066 17.7831 11.2536 18.6213 11.5711 19.423C11.7122 19.7874 11.6064 19.9331 11.3241 20.1153C10.3364 20.7348 9.20747 21.0992 8.07859 21.1721C7.2672 21.2086 6.42054 21.2086 5.64443 21.0628C3.38666 20.5526 2.04611 18.767 2.04611 16.3619C2.04611 14.3212 2.04611 12.2806 2.04611 10.2399C2.04611 10.0577 2.04611 9.9119 2.04611 9.65682Z" fill="white"/>
<path d="M87.9472 5.90343C86.4303 5.90343 85.0192 4.55512 85.0192 3.13393C85.0545 1.53053 86.3598 0.218664 88.0178 0.255105C89.6759 0.291546 90.9106 1.42121 90.9106 3.09749C90.9459 4.70089 89.5347 5.86699 87.9472 5.90343ZM87.9472 3.97207C88.5117 3.97207 88.8645 3.6441 88.8645 3.09749C88.8645 2.55088 88.4764 2.18647 87.9472 2.18647C87.4534 2.18647 86.9947 2.62376 87.03 3.09749C86.9947 3.60766 87.3828 3.97207 87.9472 3.97207Z" fill="white"/>
</g>
<path d="M3.69688 30.7577V30.0969C3.34565 30.5613 2.79499 30.7935 2.04489 30.7935C1.71747 30.7935 1.42875 30.7309 1.17872 30.6059C0.93464 30.4809 0.744141 30.3083 0.607219 30.088C0.476251 29.8677 0.410767 29.6207 0.410767 29.3468C0.410767 28.9242 0.565547 28.5908 0.875109 28.3467C1.19062 28.0967 1.62818 27.9687 2.18777 27.9628H3.68795V27.7395C3.68795 27.4061 3.58377 27.1502 3.37541 26.9716C3.17301 26.787 2.87535 26.6947 2.48245 26.6947C2.0062 26.6947 1.52102 26.8644 1.02691 27.2037L0.678656 26.6322C1.01798 26.412 1.33052 26.2542 1.61627 26.159C1.90797 26.0578 2.25325 26.0072 2.65211 26.0072C3.24147 26.0072 3.69688 26.153 4.01835 26.4447C4.33982 26.7305 4.50353 27.1323 4.50948 27.6502L4.51841 30.7577H3.69688ZM2.21456 30.1059C2.60151 30.1059 2.92893 30.0136 3.19682 29.8291C3.47066 29.6386 3.63437 29.3885 3.68795 29.079V28.6057H2.30385C1.92881 28.6057 1.64901 28.6622 1.46447 28.7754C1.28587 28.8885 1.19658 29.0671 1.19658 29.3111C1.19658 29.5552 1.28885 29.7487 1.4734 29.8916C1.65794 30.0344 1.905 30.1059 2.21456 30.1059Z" fill="white"/>
<path d="M13.3032 26.0072C13.0651 25.7571 12.7882 25.5637 12.4727 25.4267C12.1572 25.2839 11.8328 25.2124 11.4994 25.2124C11.0589 25.2124 10.654 25.3196 10.2849 25.5339C9.91586 25.7482 9.62415 26.0399 9.40984 26.409C9.19553 26.7721 9.08837 27.174 9.08837 27.6145C9.08837 28.0491 9.19553 28.4509 9.40984 28.82C9.62415 29.1891 9.91586 29.4808 10.2849 29.6951C10.654 29.9094 11.0589 30.0166 11.4994 30.0166C11.8268 30.0166 12.1483 29.9511 12.4638 29.8201C12.7793 29.6832 13.0591 29.4987 13.3032 29.2665L13.8211 29.8291C13.5056 30.1386 13.1395 30.3827 12.7227 30.5613C12.306 30.7339 11.8834 30.8202 11.4547 30.8202C10.8594 30.8202 10.3147 30.6803 9.82061 30.4005C9.3265 30.1148 8.93657 29.7278 8.65082 29.2397C8.36507 28.7515 8.2222 28.2128 8.2222 27.6234C8.2222 27.04 8.36507 26.5072 8.65082 26.025C8.94252 25.5369 9.3384 25.1529 9.83847 24.8731C10.3385 24.5933 10.8892 24.4534 11.4905 24.4534C11.925 24.4534 12.3447 24.5367 12.7495 24.7034C13.1603 24.8642 13.5145 25.0934 13.8122 25.391L13.3032 26.0072Z" fill="white"/>
<path d="M16.9428 26.0072C17.4131 26.0072 17.8299 26.1084 18.193 26.3108C18.5621 26.5132 18.8478 26.7959 19.0502 27.1591C19.2586 27.5163 19.3628 27.927 19.3628 28.3914C19.3628 28.8557 19.2586 29.2695 19.0502 29.6326C18.8478 29.9957 18.5621 30.2785 18.193 30.4809C17.8299 30.6833 17.4131 30.7845 16.9428 30.7845C16.4666 30.7845 16.0439 30.6833 15.6748 30.4809C15.3117 30.2785 15.0259 29.9987 14.8176 29.6415C14.6152 29.2784 14.514 28.8617 14.514 28.3914C14.514 27.927 14.6152 27.5163 14.8176 27.1591C15.0259 26.7959 15.3117 26.5132 15.6748 26.3108C16.0439 26.1084 16.4666 26.0072 16.9428 26.0072ZM16.9428 26.7305C16.6333 26.7305 16.3565 26.8019 16.1124 26.9448C15.8743 27.0876 15.6867 27.2871 15.5498 27.5431C15.4189 27.7931 15.3534 28.0788 15.3534 28.4003C15.3534 28.7277 15.4189 29.0194 15.5498 29.2754C15.6867 29.5314 15.8743 29.7308 16.1124 29.8737C16.3565 30.0106 16.6333 30.0791 16.9428 30.0791C17.2465 30.0791 17.5173 30.0106 17.7554 29.8737C17.9995 29.7308 18.187 29.5314 18.318 29.2754C18.4549 29.0194 18.5234 28.7277 18.5234 28.4003C18.5234 28.0788 18.4549 27.7931 18.318 27.5431C18.187 27.2871 17.9995 27.0876 17.7554 26.9448C17.5173 26.8019 17.2465 26.7305 16.9428 26.7305Z" fill="white"/>
<path d="M23.3284 26.0072C23.882 26.0072 24.3166 26.1709 24.6321 26.4983C24.9476 26.8198 25.1054 27.2662 25.1054 27.8377V30.7577H24.2749V28.061C24.2749 27.6621 24.1618 27.3526 23.9356 27.1323C23.7153 26.9061 23.4088 26.793 23.0159 26.793C22.5932 26.7989 22.2479 26.9358 21.98 27.2037C21.7181 27.4657 21.5693 27.808 21.5335 28.2306V30.7577H20.7031V26.0339H21.5335V27.0341C21.849 26.3614 22.4473 26.0191 23.3284 26.0072Z" fill="white"/>
<path d="M29.3932 26.0072C29.9469 26.0072 30.3815 26.1709 30.697 26.4983C31.0125 26.8198 31.1702 27.2662 31.1702 27.8377V30.7577H30.3398V28.061C30.3398 27.6621 30.2267 27.3526 30.0005 27.1323C29.7802 26.9061 29.4736 26.793 29.0807 26.793C28.658 26.7989 28.3127 26.9358 28.0449 27.2037C27.7829 27.4657 27.6341 27.808 27.5984 28.2306V30.7577H26.7679V26.0339H27.5984V27.0341C27.9139 26.3614 28.5122 26.0191 29.3932 26.0072Z" fill="white"/>
<path d="M34.7259 26.0072C35.4581 26.0072 36.0117 26.2244 36.3868 26.659C36.7618 27.0876 36.9493 27.6859 36.9493 28.4539C36.9493 28.5729 36.9464 28.6622 36.9404 28.7218H33.2078C33.2733 29.1444 33.4489 29.4808 33.7347 29.7308C34.0264 29.9809 34.3835 30.1059 34.8062 30.1059C35.086 30.1059 35.345 30.0553 35.5831 29.9541C35.8272 29.8529 36.0385 29.71 36.2171 29.5254L36.6725 29.9987C36.4403 30.2487 36.1606 30.4422 35.8331 30.5791C35.5057 30.7161 35.1426 30.7845 34.7437 30.7845C34.2794 30.7845 33.8656 30.6863 33.5025 30.4898C33.1453 30.2874 32.8655 30.0047 32.6631 29.6415C32.4666 29.2784 32.3684 28.8646 32.3684 28.4003C32.3684 27.936 32.4666 27.5252 32.6631 27.168C32.8655 26.8049 33.1453 26.5221 33.5025 26.3197C33.8597 26.1113 34.2675 26.0072 34.7259 26.0072ZM36.1992 28.0788C36.1754 27.6502 36.0326 27.3139 35.7706 27.0698C35.5087 26.8198 35.1634 26.6947 34.7348 26.6947C34.3181 26.6947 33.9698 26.8198 33.69 27.0698C33.4162 27.3198 33.2525 27.6562 33.1989 28.0788H36.1992Z" fill="white"/>
<path d="M41.5739 27.293C41.1989 26.9299 40.7494 26.7483 40.2255 26.7483C39.916 26.7483 39.6392 26.8168 39.3951 26.9537C39.157 27.0906 38.9694 27.2841 38.8325 27.5341C38.6956 27.7842 38.6271 28.0729 38.6271 28.4003C38.6271 28.7277 38.6926 29.0165 38.8236 29.2665C38.9605 29.5165 39.1451 29.713 39.3772 29.8558C39.6153 29.9928 39.8862 30.0612 40.1898 30.0612C40.4934 30.0612 40.7673 30.0106 41.0114 29.9094C41.2554 29.8082 41.4578 29.6624 41.6186 29.4719L42.0918 29.9541C41.8775 30.222 41.6037 30.4273 41.2703 30.5702C40.9429 30.7131 40.5708 30.7845 40.1541 30.7845C39.6957 30.7845 39.2879 30.6833 38.9307 30.4809C38.5736 30.2785 38.2938 29.9987 38.0914 29.6415C37.8949 29.2784 37.7967 28.8646 37.7967 28.4003C37.7967 27.936 37.8949 27.5222 38.0914 27.1591C38.2938 26.7959 38.5736 26.5132 38.9307 26.3108C39.2879 26.1084 39.6957 26.0072 40.1541 26.0072C40.553 26.0072 40.9102 26.0697 41.2257 26.1947C41.5471 26.3137 41.815 26.4894 42.0293 26.7215L41.5739 27.293Z" fill="white"/>
<path d="M45.9898 30.4452C45.6267 30.6774 45.2576 30.7935 44.8826 30.7935C44.5075 30.7935 44.2039 30.6833 43.9717 30.4631C43.7396 30.2368 43.6235 29.8975 43.6235 29.4451V26.8287H42.9538V26.1947H43.6235V24.9267H44.4629V26.1947H45.9095V26.8287H44.4629V29.2933C44.4629 29.5552 44.5105 29.7427 44.6058 29.8558C44.701 29.9689 44.8439 30.0255 45.0344 30.0255C45.2606 30.0255 45.5047 29.9511 45.7666 29.8023L45.9898 30.4452Z" fill="white"/>
<path d="M49.0137 26.0072C49.7459 26.0072 50.2995 26.2244 50.6746 26.659C51.0496 27.0876 51.2371 27.6859 51.2371 28.4539C51.2371 28.5729 51.2342 28.6622 51.2282 28.7218H47.4956C47.5611 29.1444 47.7367 29.4808 48.0225 29.7308C48.3142 29.9809 48.6714 30.1059 49.094 30.1059C49.3738 30.1059 49.6328 30.0553 49.8709 29.9541C50.115 29.8529 50.3263 29.71 50.5049 29.5254L50.9603 29.9987C50.7282 30.2487 50.4484 30.4422 50.1209 30.5791C49.7935 30.7161 49.4304 30.7845 49.0315 30.7845C48.5672 30.7845 48.1534 30.6863 47.7903 30.4898C47.4331 30.2874 47.1533 30.0047 46.9509 29.6415C46.7545 29.2784 46.6562 28.8646 46.6562 28.4003C46.6562 27.936 46.7545 27.5252 46.9509 27.168C47.1533 26.8049 47.4331 26.5221 47.7903 26.3197C48.1475 26.1113 48.5553 26.0072 49.0137 26.0072ZM50.487 28.0788C50.4632 27.6502 50.3204 27.3139 50.0584 27.0698C49.7965 26.8198 49.4512 26.6947 49.0226 26.6947C48.6059 26.6947 48.2576 26.8198 47.9778 27.0698C47.704 27.3198 47.5403 27.6562 47.4867 28.0788H50.487Z" fill="white"/>
<path d="M56.9511 24.1319V30.7577H56.1207V29.8201C55.9421 30.1356 55.701 30.3797 55.3974 30.5524C55.0997 30.719 54.7515 30.8024 54.3526 30.8024C53.9061 30.8024 53.5103 30.7012 53.165 30.4988C52.8256 30.2904 52.5607 30.0047 52.3702 29.6415C52.1797 29.2724 52.0845 28.8527 52.0845 28.3824C52.0845 27.9181 52.1797 27.5073 52.3702 27.1502C52.5607 26.787 52.8256 26.5042 53.165 26.3018C53.5103 26.0994 53.9032 25.9982 54.3437 25.9982C54.7485 25.9982 55.1027 26.0816 55.4063 26.2483C55.7099 26.4149 55.9481 26.656 56.1207 26.9716V24.1319H56.9511ZM54.5223 30.088C54.8318 30.088 55.1057 30.0166 55.3438 29.8737C55.5879 29.7308 55.7784 29.5314 55.9153 29.2754C56.0522 29.0194 56.1207 28.7307 56.1207 28.4092C56.1207 28.0818 56.0522 27.7901 55.9153 27.5341C55.7784 27.2781 55.5879 27.0787 55.3438 26.9358C55.1057 26.793 54.8318 26.7215 54.5223 26.7215C54.2127 26.7215 53.9359 26.7959 53.6918 26.9448C53.4537 27.0876 53.2662 27.2871 53.1293 27.5431C52.9923 27.799 52.9239 28.0878 52.9239 28.4092C52.9239 28.7307 52.9923 29.0194 53.1293 29.2754C53.2662 29.5314 53.4537 29.7308 53.6918 29.8737C53.9359 30.0166 54.2127 30.088 54.5223 30.088Z" fill="white"/>
<path d="M66.0362 30.7577L65.3755 29.2397H62.0804L61.4285 30.7577H60.5266L63.3038 24.507H64.1967L66.9649 30.7577H66.0362ZM62.4197 28.4628H65.0451L63.7235 25.4267L62.4197 28.4628Z" fill="white"/>
<path d="M70.5956 26.0072C71.1492 26.0072 71.5838 26.1709 71.8993 26.4983C72.2148 26.8198 72.3726 27.2662 72.3726 27.8377V30.7577H71.5421V28.061C71.5421 27.6621 71.429 27.3526 71.2028 27.1323C70.9826 26.9061 70.676 26.793 70.2831 26.793C69.8604 26.7989 69.5151 26.9358 69.2472 27.2037C68.9853 27.4657 68.8364 27.808 68.8007 28.2306V30.7577H67.9703V26.0339H68.8007V27.0341C69.1162 26.3614 69.7145 26.0191 70.5956 26.0072Z" fill="white"/>
<path d="M76.9194 30.7577V30.0969C76.5682 30.5613 76.0175 30.7935 75.2674 30.7935C74.94 30.7935 74.6513 30.7309 74.4012 30.6059C74.1572 30.4809 73.9667 30.3083 73.8297 30.088C73.6988 29.8677 73.6333 29.6207 73.6333 29.3468C73.6333 28.9242 73.7881 28.5908 74.0976 28.3467C74.4131 28.0967 74.8507 27.9687 75.4103 27.9628H76.9105V27.7395C76.9105 27.4061 76.8063 27.1502 76.5979 26.9716C76.3955 26.787 76.0979 26.6947 75.705 26.6947C75.2287 26.6947 74.7435 26.8644 74.2494 27.2037L73.9012 26.6322C74.2405 26.412 74.553 26.2542 74.8388 26.159C75.1305 26.0578 75.4758 26.0072 75.8746 26.0072C76.464 26.0072 76.9194 26.153 77.2409 26.4447C77.5623 26.7305 77.726 27.1323 77.732 27.6502L77.7409 30.7577H76.9194ZM75.4371 30.1059C75.824 30.1059 76.1515 30.0136 76.4193 29.8291C76.6932 29.6386 76.8569 29.3885 76.9105 29.079V28.6057H75.5264C75.1513 28.6057 74.8715 28.6622 74.687 28.7754C74.5084 28.8885 74.4191 29.0671 74.4191 29.3111C74.4191 29.5552 74.5114 29.7487 74.6959 29.8916C74.8805 30.0344 75.1275 30.1059 75.4371 30.1059Z" fill="white"/>
<path d="M79.447 24.1319H80.2774V30.7577H79.447V24.1319Z" fill="white"/>
<path d="M83.7793 31.4275C83.6304 31.7906 83.431 32.0644 83.181 32.249C82.9369 32.4335 82.6482 32.5258 82.3148 32.5258C82.1124 32.5258 81.9279 32.496 81.7612 32.4365C81.5945 32.377 81.4337 32.2847 81.279 32.1597L81.6362 31.5078C81.8445 31.6567 82.0558 31.7311 82.2702 31.7311C82.6273 31.7311 82.8952 31.5287 83.0738 31.1239L83.2524 30.7042L81.2968 26.0339H82.1719L83.6721 29.8201L85.0919 26.0339H85.9402L83.7793 31.4275Z" fill="white"/>
<path d="M89.4288 30.4452C89.0657 30.6774 88.6966 30.7935 88.3215 30.7935C87.9465 30.7935 87.6429 30.6833 87.4107 30.4631C87.1785 30.2368 87.0624 29.8975 87.0624 29.4451V26.8287H86.3927V26.1947H87.0624V24.9267H87.9018V26.1947H89.3484V26.8287H87.9018V29.2933C87.9018 29.5552 87.9495 29.7427 88.0447 29.8558C88.14 29.9689 88.2828 30.0255 88.4733 30.0255C88.6996 30.0255 88.9436 29.9511 89.2056 29.8023L89.4288 30.4452Z" fill="white"/>
<path d="M90.6206 26.0339H91.451V30.7577H90.6206V26.0339ZM91.0313 24.1498C91.1802 24.1498 91.3022 24.2004 91.3975 24.3016C91.4987 24.4028 91.5493 24.5308 91.5493 24.6856C91.5493 24.8403 91.4987 24.9683 91.3975 25.0695C91.3022 25.1707 91.1802 25.2213 91.0313 25.2213C90.8825 25.2213 90.7575 25.1707 90.6563 25.0695C90.561 24.9683 90.5134 24.8403 90.5134 24.6856C90.5134 24.5308 90.561 24.4028 90.6563 24.3016C90.7575 24.2004 90.8825 24.1498 91.0313 24.1498Z" fill="white"/>
<path d="M96.5625 27.293C96.1875 26.9299 95.738 26.7483 95.2141 26.7483C94.9046 26.7483 94.6277 26.8168 94.3837 26.9537C94.1455 27.0906 93.958 27.2841 93.8211 27.5341C93.6842 27.7842 93.6157 28.0729 93.6157 28.4003C93.6157 28.7277 93.6812 29.0165 93.8122 29.2665C93.9491 29.5165 94.1336 29.713 94.3658 29.8558C94.6039 29.9928 94.8748 30.0612 95.1784 30.0612C95.482 30.0612 95.7559 30.0106 95.9999 29.9094C96.244 29.8082 96.4464 29.6624 96.6071 29.4719L97.0804 29.9541C96.8661 30.222 96.5923 30.4273 96.2589 30.5702C95.9315 30.7131 95.5594 30.7845 95.1427 30.7845C94.6843 30.7845 94.2765 30.6833 93.9193 30.4809C93.5621 30.2785 93.2823 29.9987 93.0799 29.6415C92.8835 29.2784 92.7852 28.8646 92.7852 28.4003C92.7852 27.936 92.8835 27.5222 93.0799 27.1591C93.2823 26.7959 93.5621 26.5132 93.9193 26.3108C94.2765 26.1084 94.6843 26.0072 95.1427 26.0072C95.5415 26.0072 95.8987 26.0697 96.2142 26.1947C96.5357 26.3137 96.8036 26.4894 97.0179 26.7215L96.5625 27.293Z" fill="white"/>
<path d="M101.023 27.0787C100.827 26.9597 100.609 26.8644 100.371 26.793C100.139 26.7215 99.9158 26.6858 99.7015 26.6858C99.4515 26.6858 99.249 26.7334 99.0943 26.8287C98.9454 26.918 98.871 27.0579 98.871 27.2484C98.871 27.4389 98.9544 27.5847 99.121 27.6859C99.2937 27.7812 99.5527 27.8794 99.8979 27.9806C100.225 28.0759 100.493 28.1711 100.702 28.2664C100.91 28.3616 101.086 28.5015 101.228 28.6861C101.377 28.8706 101.452 29.1147 101.452 29.4183C101.452 29.8648 101.282 30.2041 100.943 30.4363C100.609 30.6684 100.193 30.7845 99.6926 30.7845C99.3413 30.7845 98.999 30.728 98.6656 30.6149C98.3382 30.5018 98.0614 30.341 97.8352 30.1327L98.1477 29.5254C98.3442 29.704 98.5853 29.8469 98.871 29.9541C99.1627 30.0612 99.4455 30.1148 99.7193 30.1148C99.9932 30.1148 100.213 30.0642 100.38 29.963C100.547 29.8618 100.63 29.707 100.63 29.4987C100.63 29.2843 100.541 29.1236 100.362 29.0165C100.19 28.9093 99.9247 28.8021 99.5675 28.695C99.252 28.6057 98.9931 28.5164 98.7907 28.4271C98.5942 28.3318 98.4245 28.1949 98.2817 28.0163C98.1447 27.8377 98.0763 27.6056 98.0763 27.3198C98.0763 26.8793 98.237 26.5489 98.5585 26.3286C98.88 26.1084 99.2818 25.9982 99.764 25.9982C100.05 25.9982 100.33 26.0399 100.603 26.1232C100.883 26.2006 101.124 26.3078 101.327 26.4447L101.023 27.0787Z" fill="white"/>
<path d="M105.324 24.507H106.182V29.9809H108.914V30.7577H105.324V24.507Z" fill="white"/>
<path d="M112.641 30.4452C112.278 30.6774 111.909 30.7935 111.534 30.7935C111.159 30.7935 110.855 30.6833 110.623 30.4631C110.391 30.2368 110.275 29.8975 110.275 29.4451V26.8287H109.605V26.1947H110.275V24.9267H111.114V26.1947H112.561V26.8287H111.114V29.2933C111.114 29.5552 111.162 29.7427 111.257 29.8558C111.353 29.9689 111.495 30.0255 111.686 30.0255C111.912 30.0255 112.156 29.9511 112.418 29.8023L112.641 30.4452Z" fill="white"/>
<path d="M118.174 24.1319V30.7577H117.344V29.8201C117.165 30.1356 116.924 30.3797 116.621 30.5524C116.323 30.719 115.975 30.8024 115.576 30.8024C115.129 30.8024 114.734 30.7012 114.388 30.4988C114.049 30.2904 113.784 30.0047 113.594 29.6415C113.403 29.2724 113.308 28.8527 113.308 28.3824C113.308 27.9181 113.403 27.5073 113.594 27.1502C113.784 26.787 114.049 26.5042 114.388 26.3018C114.734 26.0994 115.126 25.9982 115.567 25.9982C115.972 25.9982 116.326 26.0816 116.63 26.2483C116.933 26.4149 117.171 26.656 117.344 26.9716V24.1319H118.174ZM115.746 30.088C116.055 30.088 116.329 30.0166 116.567 29.8737C116.811 29.7308 117.002 29.5314 117.139 29.2754C117.276 29.0194 117.344 28.7307 117.344 28.4092C117.344 28.0818 117.276 27.7901 117.139 27.5341C117.002 27.2781 116.811 27.0787 116.567 26.9358C116.329 26.793 116.055 26.7215 115.746 26.7215C115.436 26.7215 115.159 26.7959 114.915 26.9448C114.677 27.0876 114.489 27.2871 114.353 27.5431C114.216 27.799 114.147 28.0878 114.147 28.4092C114.147 28.7307 114.216 29.0194 114.353 29.2754C114.489 29.5314 114.677 29.7308 114.915 29.8737C115.159 30.0166 115.436 30.088 115.746 30.088Z" fill="white"/>
<path d="M120.136 29.8112C120.273 29.8112 120.386 29.8588 120.476 29.9541C120.571 30.0493 120.618 30.1714 120.618 30.3202C120.618 30.469 120.571 30.594 120.476 30.6952C120.386 30.7905 120.273 30.8381 120.136 30.8381C119.999 30.8381 119.883 30.7905 119.788 30.6952C119.693 30.594 119.645 30.469 119.645 30.3202C119.645 30.1714 119.693 30.0493 119.788 29.9541C119.883 29.8588 119.999 29.8112 120.136 29.8112Z" fill="white"/>
<path d="M127.054 24.507C127.834 24.507 128.436 24.6915 128.858 25.0606C129.287 25.4297 129.501 25.9476 129.501 26.6144C129.501 27.3109 129.287 27.8526 128.858 28.2396C128.43 28.6206 127.828 28.8111 127.054 28.8111H125.501V30.7577H124.643V24.507H127.054ZM127.019 28.0342C127.554 28.0342 127.965 27.9181 128.251 27.6859C128.537 27.4478 128.68 27.0996 128.68 26.6412C128.68 26.1947 128.537 25.8583 128.251 25.6321C127.965 25.3999 127.554 25.2839 127.019 25.2839L125.501 25.2928V28.0342H127.019Z" fill="white"/>
<path d="M131.563 27.0519C131.718 26.7126 131.938 26.4566 132.224 26.284C132.51 26.1054 132.849 26.0131 133.242 26.0072V26.8108C132.76 26.793 132.37 26.918 132.072 27.1859C131.774 27.4538 131.605 27.8139 131.563 28.2664V30.7577H130.733V26.0339H131.563V27.0519Z" fill="white"/>
<path d="M136.285 26.0072C136.756 26.0072 137.172 26.1084 137.535 26.3108C137.905 26.5132 138.19 26.7959 138.393 27.1591C138.601 27.5163 138.705 27.927 138.705 28.3914C138.705 28.8557 138.601 29.2695 138.393 29.6326C138.19 29.9957 137.905 30.2785 137.535 30.4809C137.172 30.6833 136.756 30.7845 136.285 30.7845C135.809 30.7845 135.386 30.6833 135.017 30.4809C134.654 30.2785 134.368 29.9987 134.16 29.6415C133.958 29.2784 133.856 28.8617 133.856 28.3914C133.856 27.927 133.958 27.5163 134.16 27.1591C134.368 26.7959 134.654 26.5132 135.017 26.3108C135.386 26.1084 135.809 26.0072 136.285 26.0072ZM136.285 26.7305C135.976 26.7305 135.699 26.8019 135.455 26.9448C135.217 27.0876 135.029 27.2871 134.892 27.5431C134.761 27.7931 134.696 28.0788 134.696 28.4003C134.696 28.7277 134.761 29.0194 134.892 29.2754C135.029 29.5314 135.217 29.7308 135.455 29.8737C135.699 30.0106 135.976 30.0791 136.285 30.0791C136.589 30.0791 136.86 30.0106 137.098 29.8737C137.342 29.7308 137.53 29.5314 137.66 29.2754C137.797 29.0194 137.866 28.7277 137.866 28.4003C137.866 28.0788 137.797 27.7931 137.66 27.5431C137.53 27.2871 137.342 27.0876 137.098 26.9448C136.86 26.8019 136.589 26.7305 136.285 26.7305Z" fill="white"/>
<path d="M144.448 24.1319V30.7577H143.617V29.8201C143.439 30.1356 143.198 30.3797 142.894 30.5524C142.596 30.719 142.248 30.8024 141.849 30.8024C141.403 30.8024 141.007 30.7012 140.662 30.4988C140.322 30.2904 140.057 30.0047 139.867 29.6415C139.676 29.2724 139.581 28.8527 139.581 28.3824C139.581 27.9181 139.676 27.5073 139.867 27.1502C140.057 26.787 140.322 26.5042 140.662 26.3018C141.007 26.0994 141.4 25.9982 141.84 25.9982C142.245 25.9982 142.599 26.0816 142.903 26.2483C143.207 26.4149 143.445 26.656 143.617 26.9716V24.1319H144.448ZM142.019 30.088C142.329 30.088 142.602 30.0166 142.841 29.8737C143.085 29.7308 143.275 29.5314 143.412 29.2754C143.549 29.0194 143.617 28.7307 143.617 28.4092C143.617 28.0818 143.549 27.7901 143.412 27.5341C143.275 27.2781 143.085 27.0787 142.841 26.9358C142.602 26.793 142.329 26.7215 142.019 26.7215C141.709 26.7215 141.433 26.7959 141.189 26.9448C140.95 27.0876 140.763 27.2871 140.626 27.5431C140.489 27.799 140.421 28.0878 140.421 28.4092C140.421 28.7307 140.489 29.0194 140.626 29.2754C140.763 29.5314 140.95 29.7308 141.189 29.8737C141.433 30.0166 141.709 30.088 142.019 30.088Z" fill="white"/>
<path d="M150.473 26.0339V30.7577H149.633V29.7576C149.324 30.4303 148.74 30.7726 147.883 30.7845C147.335 30.7845 146.907 30.6238 146.597 30.3023C146.288 29.9749 146.133 29.5254 146.133 28.9539V26.0339H146.972V28.7307C146.972 29.1296 147.079 29.4421 147.294 29.6683C147.514 29.8886 147.815 29.9987 148.196 29.9987C148.636 29.9928 148.984 29.838 149.24 29.5344C149.502 29.2248 149.633 28.8319 149.633 28.3557V26.0339H150.473Z" fill="white"/>
<path d="M155.584 27.293C155.209 26.9299 154.76 26.7483 154.236 26.7483C153.926 26.7483 153.649 26.8168 153.405 26.9537C153.167 27.0906 152.98 27.2841 152.843 27.5341C152.706 27.7842 152.637 28.0729 152.637 28.4003C152.637 28.7277 152.703 29.0165 152.834 29.2665C152.971 29.5165 153.155 29.713 153.387 29.8558C153.625 29.9928 153.896 30.0612 154.2 30.0612C154.504 30.0612 154.777 30.0106 155.021 29.9094C155.266 29.8082 155.468 29.6624 155.629 29.4719L156.102 29.9541C155.888 30.222 155.614 30.4273 155.28 30.5702C154.953 30.7131 154.581 30.7845 154.164 30.7845C153.706 30.7845 153.298 30.6833 152.941 30.4809C152.584 30.2785 152.304 29.9987 152.101 29.6415C151.905 29.2784 151.807 28.8646 151.807 28.4003C151.807 27.936 151.905 27.5222 152.101 27.1591C152.304 26.7959 152.584 26.5132 152.941 26.3108C153.298 26.1084 153.706 26.0072 154.164 26.0072C154.563 26.0072 154.92 26.0697 155.236 26.1947C155.557 26.3137 155.825 26.4894 156.039 26.7215L155.584 27.293Z" fill="white"/>
<path d="M160 30.4452C159.637 30.6774 159.268 30.7935 158.893 30.7935C158.518 30.7935 158.214 30.6833 157.982 30.4631C157.75 30.2368 157.634 29.8975 157.634 29.4451V26.8287H156.964V26.1947H157.634V24.9267H158.473V26.1947H159.92V26.8287H158.473V29.2933C158.473 29.5552 158.521 29.7427 158.616 29.8558C158.711 29.9689 158.854 30.0255 159.045 30.0255C159.271 30.0255 159.515 29.9511 159.777 29.8023L160 30.4452Z" fill="white"/>
<defs>
<clipPath id="clip0">
<rect width="158.75" height="21.8281" fill="white"/>
</clipPath>
</defs>
</svg>
