<svg width="50" height="48" viewBox="0 0 50 48" fill="none" xmlns="http://www.w3.org/2000/svg">
<path d="M37.4569 4.4291H34.2567V1.54078C34.2567 0.690275 33.5399 0 32.6567 0H17.1898C16.3065 0 15.5897 0.690275 15.5897 1.54078V4.42926H12.3896C10.3266 4.42926 8.65608 6.03882 8.65608 8.02447V44.4048C8.65608 46.3904 10.3264 48 12.3896 48H37.4567C39.5196 48 41.1901 46.3904 41.1901 44.4048V8.02431C41.1903 6.03984 39.5198 4.4291 37.4569 4.4291ZM29.1901 8.02431V4.4291V3.08165H31.0569V4.42933V8.02455V11.4266H29.1901V8.02431ZM18.79 8.02431V4.4291V3.08165H24.6567V4.42933V8.02455V11.4266H18.79V8.02431ZM19.7681 43.7824C19.7681 44.6339 19.0513 45.3233 18.168 45.3233H15.5898C14.7065 45.3233 13.9897 44.634 13.9897 43.7824V41.1302C13.9897 40.2787 14.7065 39.5894 15.5898 39.5894H18.168C19.0513 39.5894 19.7681 40.2787 19.7681 41.1302V43.7824ZM19.7681 36.0354C19.7681 36.8868 19.0513 37.5762 18.168 37.5762H15.5898C14.7065 37.5762 13.9897 36.8869 13.9897 36.0354V33.3832C13.9897 32.5318 14.7065 31.8424 15.5898 31.8424H18.168C19.0513 31.8424 19.7681 32.5317 19.7681 33.3832V36.0354ZM19.7681 28.2894C19.7681 29.1409 19.0513 29.8303 18.168 29.8303H15.5898C14.7065 29.8303 13.9897 29.1409 13.9897 28.2894V25.6363C13.9897 24.7848 14.7065 24.0955 15.5898 24.0955H18.168C19.0513 24.0955 19.7681 24.7847 19.7681 25.6363V28.2894ZM27.8129 43.7824C27.8129 44.6339 27.0961 45.3233 26.2128 45.3233H23.6336C22.7503 45.3233 22.0336 44.634 22.0336 43.7824V41.1302C22.0336 40.2787 22.7503 39.5894 23.6336 39.5894H26.2128C27.0961 39.5894 27.8129 40.2787 27.8129 41.1302V43.7824ZM27.8129 36.0354C27.8129 36.8868 27.0961 37.5762 26.2128 37.5762H23.6336C22.7503 37.5762 22.0336 36.8869 22.0336 36.0354V33.3832C22.0336 32.5318 22.7503 31.8424 23.6336 31.8424H26.2128C27.0961 31.8424 27.8129 32.5317 27.8129 33.3832V36.0354ZM27.8129 28.2894C27.8129 29.1409 27.0961 29.8303 26.2128 29.8303H23.6336C22.7503 29.8303 22.0336 29.1409 22.0336 28.2894V25.6363C22.0336 24.7848 22.7503 24.0955 23.6336 24.0955H26.2128C27.0961 24.0955 27.8129 24.7847 27.8129 25.6363V28.2894ZM35.857 43.7824C35.857 44.6339 35.1402 45.3233 34.2569 45.3233H31.6787C30.7955 45.3233 30.0787 44.634 30.0787 43.7824V41.1302C30.0787 40.2787 30.7955 39.5894 31.6787 39.5894H34.2569C35.1403 39.5894 35.857 40.2787 35.857 41.1302V43.7824ZM35.857 36.0354C35.857 36.8868 35.1402 37.5762 34.2569 37.5762H31.6787C30.7955 37.5762 30.0787 36.8869 30.0787 36.0354V33.3832C30.0787 32.5318 30.7955 31.8424 31.6787 31.8424H34.2569C35.1403 31.8424 35.857 32.5317 35.857 33.3832V36.0354ZM35.857 28.2894C35.857 29.1409 35.1402 29.8303 34.2569 29.8303H31.6787C30.7955 29.8303 30.0787 29.1409 30.0787 28.2894V25.6363C30.0787 24.7848 30.7955 24.0955 31.6787 24.0955H34.2569C35.1403 24.0955 35.857 24.7847 35.857 25.6363V28.2894ZM35.857 19.2925C35.857 20.7459 34.6324 21.9242 33.1231 21.9242H16.7228C15.2135 21.9242 13.9899 20.7459 13.9899 19.2925V16.5736C13.9899 15.119 15.2135 13.9409 16.7228 13.9409H33.123C34.6324 13.9409 35.8569 15.1192 35.8569 16.5736V19.2925H35.857Z" fill="white"/>
</svg>
