<svg width="52" height="52" viewBox="0 0 52 52" fill="none" xmlns="http://www.w3.org/2000/svg">
<path d="M35.0894 32.1167L32.892 32.1182C32.892 24.9422 27.0576 19.1048 19.8816 19.1018V16.9074C28.2655 16.9089 35.0894 23.7313 35.0894 32.1167ZM19.8816 20.7079V22.9053C24.9598 22.9038 29.096 27.0385 29.096 32.1197L31.2919 32.1182C31.2919 25.8277 26.1721 20.7079 19.8816 20.7079ZM19.8816 24.6242V26.8216C22.8025 26.8216 25.1782 29.1987 25.1782 32.1197L27.3755 32.1182C27.3755 27.9864 24.0119 24.6242 19.8816 24.6242ZM33.6453 4.73349L35.2855 6.37371L31.7138 9.94686C38.3089 12.3032 43.0528 18.5937 43.0528 25.9881C43.0528 35.3897 35.4043 43.0397 25.9998 43.0397C25.8675 43.0397 25.7427 43.0307 25.609 43.0203V39.8409L19.5354 45.919L25.6135 52V48.5843C25.7413 48.5962 25.8661 48.6066 25.9983 48.6066C38.4679 48.6066 48.6123 38.4592 48.6123 25.9881C48.6138 16.2077 42.3605 7.88171 33.6453 4.73349ZM20.6453 42.1869C13.8615 39.9345 8.94823 33.5445 8.94823 26.0119C8.94823 16.6103 16.5967 8.96034 26.0013 8.96034C26.132 8.96034 26.2598 8.96926 26.389 8.97966V12.1591L32.4641 6.08103L26.3831 0V3.41566C26.2583 3.40377 26.1305 3.39337 25.9998 3.39337C13.5272 3.39337 3.38571 13.5408 3.38571 26.0119C3.38571 35.7344 9.56628 44.0232 18.2013 47.2101L16.9102 45.9234L20.6453 42.1869Z" fill="white"/>
</svg>
